<svg id="Grupo_4" data-name="Grupo 4" xmlns="http://www.w3.org/2000/svg" xmlns:xlink="http://www.w3.org/1999/xlink" width="122.64" height="59.125" viewBox="0 0 122.64 59.125">
  <defs>
    <clipPath id="clip-path">
      <rect id="Retângulo_3" data-name="Retângulo 3" width="122.64" height="59.125" fill="#fff"/>
    </clipPath>
  </defs>
  <g id="Grupo_3" data-name="Grupo 3" clip-path="url(#clip-path)">
    <path id="Caminho_19" data-name="Caminho 19" d="M107.334,44.191h0q-2.538-2.932-5.078-5.861c-1.518-1.748-3.045-3.49-4.56-5.24-2.1-2.426-4.191-4.863-6.295-7.286-1.615-1.859-3.252-3.7-4.865-5.559-1.542-1.777-3.06-3.574-4.6-5.351-1.589-1.833-3.193-3.653-4.788-5.481-.684-.785-1.368-1.571-2.036-2.369a.856.856,0,0,0-.719-.349q-4.584.015-9.168,0c-.3,0-.487.032-.452.413.034.363-.009.734-.009,1.1q0,21.6-.008,43.2a1.037,1.037,0,0,0,1.08,1.041c1.461-.052,2.923-.016,4.385-.036a1.09,1.09,0,0,0,1.067-1.083c0-5.24.015-10.48-.01-15.719,0-.041,0-.082,0-.124a1.106,1.106,0,0,1,2.01-.689c.049.068.1.133.154.193q2.154,2.461,4.31,4.918a2.112,2.112,0,0,1,.193,1.266c0,5.37.028,15.546.054,16.027a2.219,2.219,0,0,1-1.8,1.916c-.571,0-10.586-.014-16.379-.014-.743.023-1.7-1.2-1.675-1.757.034-.915.009-.652.009-1.576-.027,0-.071-.014-.091,0a14.826,14.826,0,0,1-5.544,2.773,16.26,16.26,0,0,1-4.44.547q-17.453.027-34.906,0a13.079,13.079,0,0,1-5.112-.914A17.025,17.025,0,0,1,5.44,56.62a11.444,11.444,0,0,1-3.181-3.276A11.79,11.79,0,0,1,.669,50.049a17.846,17.846,0,0,1-.658-4.893C0,43.738,0,42.32,0,40.9a1.628,1.628,0,0,1,1.627-1.635q22.492,0,44.984.009a8.3,8.3,0,0,1,2.551.261,2.96,2.96,0,0,1,2.048,2.08,3.505,3.505,0,0,1-.28,2.772,3.089,3.089,0,0,1-2.665,1.556c-.171.016-.342.019-.514.019H7.384c-.135,0-.271.01-.4,0-.338-.031-.4.1-.367.433a6.18,6.18,0,0,0,.426,1.962,6.447,6.447,0,0,0,6.361,4.07q16.091-.01,32.182-.01c.968,0,1.932.056,2.9.015a10.2,10.2,0,0,0,5.779-2,9.252,9.252,0,0,0,3.707-5.884,9.554,9.554,0,0,0-1.145-6.836A9.131,9.131,0,0,0,53.92,34.69,11.81,11.81,0,0,0,49.729,33a3.488,3.488,0,0,0-.669-.062c-2.516,0-5.032,0-7.548-.022-8.665-.076-17.33.006-25.994-.072A14.3,14.3,0,0,1,8.7,30.987,16.765,16.765,0,0,1,4.038,27.2,16.176,16.176,0,0,1,1.3,22.746a16.4,16.4,0,0,1-1.273-6A16.583,16.583,0,0,1,1.51,9.724,16.005,16.005,0,0,1,7.253,2.845,16.293,16.293,0,0,1,13.6.3,17.863,17.863,0,0,1,16.74.011q17.343.008,34.685.01A14.694,14.694,0,0,1,56.115.8a10.44,10.44,0,0,1,1.73.8c.252.14.364.111.349-.2C58.19,0,58.9,0,59.4,0c.307,0,11.571.014,17.634,0A2.222,2.222,0,0,1,78.78.951C79.819,2.141,80.413,2.8,81.445,4l5.236,6.062c1.033,1.2,2.07,2.388,3.1,3.589,1.511,1.77,3.05,3.516,4.57,5.278,1.6,1.854,3.187,3.721,4.793,5.571,1.108,1.277,2.063,2.268,3.085,3.617.107.141.654.011.654-.141,0-9.212,0-17.243,0-26.454a1.88,1.88,0,0,1,1.51-1.508c6.173,0,10.281,0,16.455,0A2.64,2.64,0,0,1,122.64,1.8c0,19.293,0,36.225,0,55.518a1.81,1.81,0,0,1-1.783,1.8c-6.161,0-9.9-.005-16.066.009A3.751,3.751,0,0,1,101.93,58c-1.548-1.819-2.609-2.986-4.173-4.792-1.532-1.769-3.047-3.552-4.577-5.323s-3.07-3.532-4.6-5.3q-1.637-1.889-3.266-3.784-2.3-2.655-4.6-5.307c-2.267-2.623-4.518-5.26-6.8-7.867-.726-.829-1.37-1.725-2.121-2.531a1.863,1.863,0,0,1-.506-1.284c.016-2.108.033-4.217-.01-6.325,0-.2-.006-.431-.008-.682a.923.923,0,0,1,1.617-.614c.35.4.7.793,1.041,1.2,1.18,1.393,2.382,2.766,3.575,4.147q2.27,2.628,4.541,5.255c1.459,1.686,2.926,3.365,4.381,5.053,2.175,2.523,4.337,5.058,6.517,7.578,2.035,2.353,4.116,4.667,6.121,7.044,1.477,1.751,3.02,3.445,4.472,5.217.706.862.581.793,1.306,1.639a2.134,2.134,0,0,0,2.054,1.127c2.662-.01,4.175-.014,7.744-.019A1.428,1.428,0,0,0,116.061,51c0-14.742,0-28.672,0-43.3a.933.933,0,0,0-.835-.986c-1.352.018-2.173-.039-3.5-.015-.614.011-.637-.011-1.251,0a1.052,1.052,0,0,0-.935.922c.015.808-.01,1.026-.01,1.834q0,16.757.006,33.515a1.429,1.429,0,0,1-2.21,1.219m-70.1-24.4H27.143c-3.375,0-6.75.012-10.125-.008a3.625,3.625,0,0,1-2.669-.97,3.177,3.177,0,0,1-.741-3.539,3.283,3.283,0,0,1,3.03-2.1c.9-.069,1.813-.073,2.721-.071,12.8.031,25.6-.051,38.4.045.142,0,.239-.028.238-.2a5.377,5.377,0,0,0-.929-3.407c-.277-.362-.6-.677-.9-1.015a5.217,5.217,0,0,0-4.01-1.8Q34.278,6.685,16.4,6.712a9.508,9.508,0,0,0-7.241,3.332,11,11,0,0,0-1.7,2.518A9.282,9.282,0,0,0,6.65,16.05a9.764,9.764,0,0,0,4.23,8.4,9.064,9.064,0,0,0,5.5,1.784c10.689.016,21.378.006,32.068.024a14.236,14.236,0,0,1,4.286.585,16.79,16.79,0,0,1,5.135,2.5c.074.055.144.168.25.109s.058-.177.058-.27c0-.318,0-.637,0-.955,0-2.694,0-5.389.01-8.084,0-.316-.063-.448-.416-.385a5.033,5.033,0,0,1-.881.026H37.231" transform="translate(0 0)" fill="#fff"/>
  </g>
</svg>
