<?xml version="1.0" standalone="no"?>
<!DOCTYPE svg PUBLIC "-//W3C//DTD SVG 20010904//EN"
 "http://www.w3.org/TR/2001/REC-SVG-20010904/DTD/svg10.dtd">
<svg version="1.0" xmlns="http://www.w3.org/2000/svg"
 width="200.000000pt" height="200.000000pt" viewBox="0 0 200.000000 200.000000"
 preserveAspectRatio="xMidYMid meet">
<metadata>
Created by potrace 1.14, written by Peter Selinger 2001-2017
</metadata>
<g transform="translate(0.000000,200.000000) scale(0.100000,-0.100000)"
fill="#000000" stroke="none">
<path d="M0 1000 l0 -1000 1000 0 1000 0 0 1000 0 1000 -1000 0 -1000 0 0
-1000z m1020 485 c23 -8 70 -15 104 -15 145 -1 248 -108 306 -319 11 -41 16
-71 12 -65 -5 5 -31 38 -58 74 -69 92 -208 234 -263 270 -56 36 -73 37 -145
10 l-55 -21 -31 -132 c-17 -73 -33 -138 -35 -144 -3 -10 43 -13 209 -13 l213
0 11 25 c13 27 27 32 35 13 5 -15 -48 -281 -63 -315 -8 -20 -7 -23 10 -23 30
0 60 -36 60 -70 0 -17 -9 -39 -20 -50 -19 -19 -33 -20 -281 -20 l-260 0 3 23
3 22 245 1 c294 2 270 0 270 24 0 11 -6 20 -12 21 -7 0 -98 2 -203 2 -205 2
-218 5 -249 58 -9 15 -16 37 -16 50 0 47 -16 2 -51 -142 l-36 -149 31 -18 c49
-28 136 -64 201 -83 l60 -17 -30 -12 c-16 -6 -61 -18 -100 -27 -182 -38 -292
37 -311 216 -4 37 -16 71 -36 101 -45 70 -62 142 -49 207 14 70 60 157 120
224 26 30 64 86 84 124 42 79 93 137 146 165 44 23 123 25 181 5z m-376 -111
c32 -32 3 -134 -38 -134 -43 0 -77 98 -47 134 17 20 65 21 85 0z m852 -409
c27 -74 24 -141 -10 -199 -15 -26 -30 -46 -32 -43 -2 2 0 37 6 77 6 40 7 109
4 154 -7 90 1 93 32 11z m-68 -296 c-18 -53 -73 -123 -119 -152 -52 -32 -142
-49 -214 -41 l-51 6 136 69 c74 38 162 87 195 108 33 22 61 40 62 40 1 1 -3
-13 -9 -30z m-458 -27 c0 -29 -16 -44 -41 -40 -30 4 -39 46 -14 65 22 15 55 0
55 -25z m235 -7 c0 -23 -5 -31 -21 -33 -27 -4 -47 21 -39 48 5 16 14 20 33 18
23 -2 27 -8 27 -33z"/>
<path d="M836 1064 c-11 -29 -6 -34 30 -34 29 0 35 3 30 16 -3 9 -6 20 -6 25
0 16 -48 10 -54 -7z"/>
<path d="M938 1055 c4 -22 10 -25 43 -25 35 0 39 3 39 25 0 23 -4 25 -44 25
-41 0 -43 -1 -38 -25z"/>
<path d="M1060 1055 c0 -22 4 -25 39 -25 26 0 41 5 45 16 11 29 6 34 -39 34
-41 0 -45 -2 -45 -25z"/>
<path d="M1188 1055 c-5 -23 -2 -25 32 -25 25 0 40 5 44 16 11 29 6 34 -33 34
-33 0 -39 -3 -43 -25z"/>
<path d="M840 955 c0 -22 4 -25 35 -25 31 0 35 3 35 25 0 22 -4 25 -35 25 -31
0 -35 -3 -35 -25z"/>
<path d="M952 958 c2 -18 11 -24 36 -26 29 -3 32 -1 32 22 0 23 -4 26 -36 26
-31 0 -35 -3 -32 -22z"/>
<path d="M1060 955 c0 -22 4 -25 35 -25 31 0 35 3 35 25 0 22 -4 25 -35 25
-31 0 -35 -3 -35 -25z"/>
<path d="M1177 973 c-19 -19 -5 -41 27 -45 34 -4 45 8 46 45 0 9 -64 10 -73 0z"/>
<path d="M862 868 c6 -17 55 -44 63 -36 4 4 4 16 0 27 -5 15 -15 21 -37 21
-19 0 -28 -4 -26 -12z"/>
<path d="M970 855 c0 -20 5 -25 25 -25 20 0 25 5 25 25 0 20 -5 25 -25 25 -20
0 -25 -5 -25 -25z"/>
<path d="M1060 855 c0 -20 5 -25 25 -25 14 0 25 4 25 9 0 5 3 16 6 25 5 13 -1
16 -25 16 -26 0 -31 -4 -31 -25z"/>
<path d="M1158 855 c-4 -16 -1 -25 8 -25 23 0 44 12 55 31 9 17 6 19 -24 19
-29 0 -35 -4 -39 -25z"/>
</g>
</svg>
