<?xml version="1.0" standalone="no"?>
<!DOCTYPE svg PUBLIC "-//W3C//DTD SVG 20010904//EN"
 "http://www.w3.org/TR/2001/REC-SVG-20010904/DTD/svg10.dtd">
<svg version="1.0" xmlns="http://www.w3.org/2000/svg"
 width="200.000000pt" height="200.000000pt" viewBox="0 0 200.000000 200.000000"
 preserveAspectRatio="xMidYMid meet">
<metadata>
Created by potrace 1.14, written by Peter Selinger 2001-2017
</metadata>
<g transform="translate(0.000000,200.000000) scale(0.100000,-0.100000)"
fill="#000000" stroke="none">
<path d="M0 1000 l0 -1000 1000 0 1000 0 0 1000 0 1000 -1000 0 -1000 0 0
-1000z m931 245 c34 -41 65 -75 68 -75 3 0 33 34 66 75 l60 76 95 -3 c79 -3
95 -6 98 -20 5 -24 -263 -346 -295 -354 -56 -15 -75 2 -274 249 -48 60 -76
103 -73 112 5 12 26 15 100 15 l94 0 61 -75z m-274 -497 c-2 -39 -5 -43 -32
-49 -16 -4 -54 -7 -82 -8 l-53 -1 0 50 0 50 85 0 85 0 -3 -42z m193 32 c0 -6
-32 -11 -72 -12 l-73 -2 63 -3 c45 -3 62 -8 62 -18 0 -10 -17 -15 -62 -18
l-63 -3 73 -2 c56 -2 72 -5 72 -17 0 -12 -16 -15 -85 -15 l-85 0 0 50 0 50 85
0 c50 0 85 -4 85 -10z m95 -20 c9 -16 19 -30 23 -30 4 0 16 14 25 30 14 23 25
30 48 30 28 0 29 -1 29 -50 0 -38 -4 -50 -15 -50 -11 0 -15 11 -15 38 l-1 37
-30 -37 c-17 -21 -37 -38 -44 -38 -7 0 -24 17 -37 38 l-23 37 -3 -37 c-2 -25
-8 -38 -18 -38 -10 0 -14 13 -14 50 0 49 1 50 30 50 23 0 33 -7 45 -30z m380
-8 c0 -19 -3 -38 -6 -43 -3 -5 -42 -12 -87 -16 l-82 -6 0 52 0 52 88 -3 87 -3
0 -33z m182 22 c3 -9 1 -24 -4 -33 -7 -11 -7 -23 -1 -34 14 -26 -28 -22 -44 3
-9 13 -24 20 -44 20 -23 0 -33 -5 -37 -20 -3 -11 -12 -20 -21 -20 -13 0 -16
11 -16 50 l0 50 80 0 c65 0 82 -3 87 -16z"/>
<path d="M700 1295 c0 -3 25 -36 55 -73 57 -69 103 -102 142 -102 28 0 73 20
73 32 0 5 -26 41 -57 79 l-57 69 -78 0 c-43 0 -78 -2 -78 -5z"/>
<path d="M1071 1215 c-81 -95 -95 -105 -163 -114 l-48 -6 51 -62 c56 -68 75
-79 110 -63 19 9 180 196 262 306 l19 24 -80 0 -80 0 -71 -85z"/>
<path d="M548 763 c18 -2 45 -2 60 0 15 2 0 4 -33 4 -33 0 -45 -2 -27 -4z"/>
<path d="M548 723 c18 -2 45 -2 60 0 15 2 0 4 -33 4 -33 0 -45 -2 -27 -4z"/>
<path d="M1213 763 c15 -2 39 -2 55 0 15 2 2 4 -28 4 -30 0 -43 -2 -27 -4z"/>
<path d="M1213 723 c15 -2 39 -2 55 0 15 2 2 4 -28 4 -30 0 -43 -2 -27 -4z"/>
<path d="M1380 760 c0 -5 20 -10 45 -10 25 0 45 5 45 10 0 6 -20 10 -45 10
-25 0 -45 -4 -45 -10z"/>
</g>
</svg>
